<svg width="487" height="193" viewBox="0 0 487 193" fill="none" xmlns="http://www.w3.org/2000/svg">
<path d="M0 27.9924H35.7606L73.5302 120.139H75.1374L112.907 27.9924H148.668V165.142H120.541V75.874H119.403L83.9101 164.472H64.7575L29.2647 75.5392H28.1263V165.142H0V27.9924Z" fill="black"/>
<path d="M427.252 193H138.489L197.42 0H486.183L427.252 193ZM375.285 26.5195C365.285 26.5195 356.356 28.2599 348.498 31.7422C340.641 35.2245 334.458 40.0688 329.949 46.2744C325.484 52.4801 323.274 59.7351 323.319 68.0391C323.274 78.1734 326.6 86.2315 333.297 92.2139C339.994 98.1962 349.124 102.594 360.687 105.406L375.62 109.157C380.62 110.363 384.839 111.702 388.277 113.175C391.759 114.648 394.393 116.434 396.179 118.532C398.009 120.631 398.925 123.22 398.925 126.301C398.925 129.604 397.92 132.529 395.911 135.073C393.902 137.618 391.067 139.605 387.407 141.033C383.79 142.462 379.526 143.177 374.616 143.177C369.615 143.177 365.129 142.417 361.156 140.899C357.227 139.337 354.079 137.038 351.713 134.002C349.392 130.921 348.075 127.082 347.762 122.483H319.702C319.926 132.35 322.314 140.631 326.867 147.328C331.466 153.98 337.851 159.002 346.021 162.396C354.235 165.788 363.879 167.485 374.95 167.485C386.112 167.485 395.643 165.811 403.545 162.463C411.492 159.07 417.564 154.316 421.761 148.199C426.002 142.038 428.145 134.76 428.19 126.367C428.145 120.653 427.096 115.586 425.042 111.166C423.033 106.746 420.198 102.907 416.537 99.6475C412.876 96.3884 408.545 93.6424 403.545 91.4102C398.545 89.178 393.054 87.3921 387.072 86.0527L374.749 83.1064C371.758 82.4368 368.946 81.6328 366.312 80.6953C363.678 79.7131 361.356 78.575 359.347 77.2803C357.338 75.9409 355.753 74.3558 354.592 72.5254C353.476 70.695 352.963 68.552 353.052 66.0967C353.052 63.1502 353.9 60.5158 355.597 58.1943C357.338 55.873 359.838 54.0652 363.097 52.7705C366.356 51.4312 370.352 50.7617 375.084 50.7617C382.049 50.7617 387.563 52.2568 391.625 55.248C395.688 58.2392 397.987 62.4359 398.523 67.8379H426.315C426.181 59.6679 423.993 52.48 419.751 46.2744C415.51 40.0689 409.572 35.2245 401.938 31.7422C394.348 28.2601 385.464 26.5196 375.285 26.5195ZM259.833 26.5195C247.779 26.5196 236.931 29.2873 227.287 34.8232C217.644 40.3146 210.009 48.3063 204.384 58.7979C198.759 69.2893 195.947 82.013 195.947 96.9688C195.947 111.88 198.714 124.582 204.25 135.073C209.831 145.565 217.421 153.578 227.02 159.114C236.663 164.65 247.601 167.419 259.833 167.419C268.628 167.419 276.508 166.102 283.473 163.468C290.482 160.789 296.509 157.173 301.554 152.619C306.643 148.021 310.684 142.819 313.675 137.016C316.711 131.167 318.609 125.095 319.367 118.8L290.035 118.666C289.366 122.327 288.16 125.586 286.419 128.443C284.723 131.301 282.58 133.734 279.991 135.743C277.401 137.707 274.432 139.203 271.084 140.229C267.781 141.256 264.186 141.77 260.302 141.77C253.382 141.77 247.288 140.074 242.02 136.681C236.752 133.288 232.645 128.264 229.699 121.612C226.797 114.96 225.345 106.746 225.345 96.9688C225.345 87.4594 226.797 79.3786 229.699 72.7266C232.6 66.0299 236.685 60.9403 241.953 57.458C247.221 53.9311 253.405 52.168 260.503 52.168C264.432 52.168 268.071 52.7257 271.419 53.8418C274.812 54.9579 277.804 56.5648 280.393 58.6631C282.982 60.7614 285.102 63.3067 286.754 66.2979C288.406 69.2444 289.5 72.6153 290.035 76.4102H319.367C318.43 68.4634 316.287 61.409 312.939 55.248C309.635 49.0871 305.349 43.8858 300.081 39.6445C294.813 35.3586 288.764 32.0994 281.933 29.8672C275.147 27.6349 267.78 26.5195 259.833 26.5195Z" fill="black"/>
</svg>
