<svg width="251" height="45" viewBox="0 0 251 45" fill="none" xmlns="http://www.w3.org/2000/svg">
<path d="M1.85565 12.7871H7.42258L13.3023 27.1318H13.5525L19.4321 12.7871H24.9991V34.1374H20.6206V20.2409H20.4434L14.9181 34.0332H11.9366L6.41136 20.1888H6.23413V34.1374H1.85565V12.7871ZM31.3766 40.1422C30.8136 40.1422 30.2854 40.097 29.792 40.0067C29.3055 39.9233 28.9024 39.8156 28.5827 39.6835L29.5835 36.3684C30.1047 36.5282 30.5738 36.6151 30.9908 36.629C31.4148 36.6429 31.7797 36.5456 32.0855 36.3371C32.3982 36.1286 32.6519 35.7741 32.8465 35.2737L33.1071 34.5961L27.3629 18.1247H32.0333L35.3485 29.884H35.5153L38.8617 18.1247H43.5634L37.3396 35.868C37.0408 36.7298 36.6342 37.4804 36.1199 38.1198C35.6126 38.7661 34.9697 39.263 34.1913 39.6105C33.4129 39.965 32.4747 40.1422 31.3766 40.1422Z" fill="black"/>
<path d="M52.8421 0H251L236.322 44.769H38.1637L52.8421 0Z" fill="black"/>
<path d="M231.874 17.3722V20.7082H222.231V17.3722H231.874ZM224.421 13.5358H228.862V28.4644C228.862 28.8744 228.924 29.1941 229.049 29.4235C229.174 29.6459 229.348 29.8022 229.57 29.8926C229.8 29.9829 230.064 30.0281 230.363 30.0281C230.571 30.0281 230.78 30.0107 230.988 29.976C231.197 29.9343 231.357 29.903 231.468 29.8822L232.166 33.1869C231.944 33.2564 231.631 33.3363 231.228 33.4266C230.825 33.5239 230.335 33.583 229.758 33.6039C228.688 33.6456 227.75 33.5031 226.943 33.1764C226.144 32.8498 225.522 32.3424 225.077 31.6544C224.633 30.9664 224.414 30.0976 224.421 29.0482V13.5358Z" fill="white"/>
<path d="M213.109 33.6977C211.462 33.6977 210.044 33.3641 208.856 32.6969C207.675 32.0227 206.764 31.0706 206.125 29.8404C205.485 28.6033 205.166 27.1404 205.166 25.4515C205.166 23.8044 205.485 22.3588 206.125 21.1147C206.764 19.8707 207.664 18.9012 208.825 18.2062C209.992 17.5112 211.361 17.1637 212.932 17.1637C213.989 17.1637 214.972 17.3339 215.882 17.6745C216.8 18.0081 217.599 18.512 218.28 19.1861C218.968 19.8603 219.503 20.7082 219.886 21.7298C220.268 22.7445 220.459 23.9329 220.459 25.2951V26.5149H206.938V23.7627H216.279C216.279 23.1233 216.14 22.5569 215.862 22.0634C215.584 21.57 215.198 21.1842 214.704 20.9062C214.218 20.6213 213.652 20.4788 213.005 20.4788C212.331 20.4788 211.733 20.6352 211.212 20.9479C210.698 21.2537 210.295 21.6673 210.003 22.1885C209.711 22.7028 209.561 23.2762 209.554 23.9086V26.5253C209.554 27.3176 209.7 28.0022 209.992 28.579C210.291 29.1559 210.712 29.6007 211.254 29.9134C211.796 30.2262 212.439 30.3825 213.182 30.3825C213.676 30.3825 214.128 30.313 214.538 30.174C214.948 30.035 215.299 29.8265 215.591 29.5485C215.882 29.2705 216.105 28.93 216.258 28.5269L220.365 28.7979C220.157 29.7848 219.729 30.6466 219.083 31.3833C218.444 32.1131 217.616 32.683 216.602 33.093C215.594 33.4961 214.43 33.6977 213.109 33.6977Z" fill="white"/>
<path d="M195.564 33.6977C193.917 33.6977 192.499 33.3641 191.311 32.6969C190.129 32.0227 189.219 31.0706 188.579 29.8404C187.94 28.6033 187.62 27.1404 187.62 25.4515C187.62 23.8044 187.94 22.3588 188.579 21.1147C189.219 19.8707 190.119 18.9012 191.28 18.2062C192.447 17.5112 193.816 17.1637 195.387 17.1637C196.443 17.1637 197.427 17.3339 198.337 17.6745C199.255 18.0081 200.054 18.512 200.735 19.1861C201.423 19.8603 201.958 20.7082 202.34 21.7298C202.723 22.7445 202.914 23.9329 202.914 25.2951V26.5149H189.393V23.7627H198.733C198.733 23.1233 198.594 22.5569 198.316 22.0634C198.038 21.57 197.653 21.1842 197.159 20.9062C196.673 20.6213 196.106 20.4788 195.46 20.4788C194.786 20.4788 194.188 20.6352 193.667 20.9479C193.153 21.2537 192.749 21.6673 192.458 22.1885C192.166 22.7028 192.016 23.2762 192.009 23.9086V26.5253C192.009 27.3176 192.155 28.0022 192.447 28.579C192.746 29.1559 193.166 29.6007 193.709 29.9134C194.251 30.2262 194.894 30.3825 195.637 30.3825C196.131 30.3825 196.582 30.313 196.992 30.174C197.402 30.035 197.753 29.8265 198.045 29.5485C198.337 29.2705 198.56 28.93 198.713 28.5269L202.82 28.7979C202.611 29.7848 202.184 30.6466 201.538 31.3833C200.898 32.1131 200.071 32.683 199.057 33.093C198.049 33.4961 196.885 33.6977 195.564 33.6977Z" fill="white"/>
<path d="M174.388 24.1276V33.385H169.947V12.0346H174.263V20.1974H174.451C174.812 19.2522 175.396 18.512 176.202 17.9768C177.009 17.4347 178.02 17.1637 179.236 17.1637C180.348 17.1637 181.318 17.4069 182.145 17.8934C182.979 18.373 183.625 19.0645 184.084 19.968C184.549 20.8646 184.779 21.9383 184.772 23.1893V33.385H180.331V23.9816C180.338 22.9947 180.087 22.2268 179.58 21.6777C179.08 21.1287 178.378 20.8541 177.474 20.8541C176.87 20.8541 176.334 20.9827 175.869 21.2399C175.41 21.497 175.049 21.8723 174.785 22.3658C174.527 22.8523 174.395 23.4395 174.388 24.1276Z" fill="white"/>
<path d="M162.376 18.1749C162.293 17.334 161.935 16.6807 161.303 16.215C160.67 15.7494 159.812 15.5165 158.728 15.5165C157.991 15.5165 157.369 15.6208 156.861 15.8293C156.354 16.0308 155.965 16.3123 155.694 16.6737C155.43 17.0351 155.298 17.4452 155.298 17.9039C155.284 18.2861 155.364 18.6197 155.538 18.9047C155.718 19.1896 155.965 19.4363 156.278 19.6448C156.59 19.8464 156.952 20.0236 157.362 20.1765C157.772 20.3225 158.21 20.4476 158.675 20.5518L160.594 21.0105C161.525 21.219 162.38 21.497 163.158 21.8445C163.937 22.192 164.611 22.6194 165.181 23.1268C165.751 23.6341 166.192 24.2318 166.505 24.9199C166.824 25.6079 166.988 26.3967 166.995 27.2863C166.988 28.5929 166.654 29.7258 165.994 30.6849C165.34 31.637 164.395 32.3772 163.158 32.9054C161.928 33.4267 160.444 33.6873 158.707 33.6873C156.983 33.6873 155.482 33.4232 154.203 32.895C152.931 32.3668 151.937 31.5849 151.222 30.5494C150.513 29.5069 150.141 28.2176 150.106 26.6817H154.474C154.523 27.3975 154.728 27.9952 155.089 28.4748C155.458 28.9474 155.948 29.3053 156.559 29.5486C157.178 29.7849 157.876 29.903 158.655 29.903C159.419 29.903 160.083 29.7918 160.646 29.5694C161.216 29.347 161.657 29.0377 161.97 28.6416C162.282 28.2454 162.439 27.7902 162.439 27.2759C162.439 26.7964 162.296 26.3933 162.011 26.0666C161.733 25.74 161.323 25.462 160.781 25.2326C160.246 25.0033 159.589 24.7948 158.811 24.6071L156.486 24.0233C154.686 23.5855 153.265 22.9009 152.222 21.9696C151.18 21.0383 150.662 19.7838 150.669 18.2062C150.662 16.9135 151.006 15.7841 151.701 14.8181C152.403 13.852 153.366 13.098 154.589 12.5559C155.812 12.0138 157.202 11.7427 158.759 11.7427C160.343 11.7427 161.726 12.0138 162.908 12.5559C164.096 13.098 165.021 13.852 165.681 14.8181C166.341 15.7841 166.682 16.9031 166.703 18.1749H162.376Z" fill="white"/>
<path d="M141.023 17.3722V20.7082H131.38V17.3722H141.023ZM133.569 13.5358H138.011V28.4644C138.011 28.8744 138.073 29.1941 138.198 29.4235C138.323 29.6459 138.497 29.8022 138.719 29.8926C138.949 29.9829 139.213 30.0281 139.512 30.0281C139.72 30.0281 139.929 30.0107 140.137 29.976C140.346 29.9343 140.506 29.903 140.617 29.8822L141.315 33.1869C141.093 33.2564 140.78 33.3363 140.377 33.4266C139.974 33.5239 139.484 33.583 138.907 33.6039C137.837 33.6456 136.899 33.5031 136.092 33.1764C135.293 32.8498 134.671 32.3424 134.226 31.6544C133.781 30.9664 133.563 30.0976 133.569 29.0482V13.5358Z" fill="white"/>
<path d="M120.043 33.6872C119.021 33.6872 118.111 33.51 117.312 33.1556C116.512 32.7942 115.88 32.2625 115.414 31.5606C114.956 30.8517 114.726 29.969 114.726 28.9126C114.726 28.023 114.89 27.2759 115.216 26.6712C115.543 26.0666 115.988 25.5801 116.551 25.2117C117.114 24.8434 117.753 24.5654 118.469 24.3777C119.192 24.1901 119.949 24.058 120.742 23.9816C121.673 23.8843 122.423 23.7939 122.993 23.7105C123.563 23.6202 123.977 23.4881 124.234 23.3144C124.491 23.1406 124.62 22.8835 124.62 22.543V22.4804C124.62 21.8202 124.411 21.3093 123.994 20.9479C123.584 20.5865 123 20.4058 122.243 20.4058C121.443 20.4058 120.808 20.5831 120.335 20.9375C119.862 21.285 119.55 21.7229 119.397 22.2511L115.289 21.9175C115.498 20.9445 115.908 20.1035 116.519 19.3946C117.131 18.6788 117.92 18.1297 118.886 17.7475C119.859 17.3583 120.985 17.1637 122.264 17.1637C123.153 17.1637 124.005 17.2679 124.818 17.4764C125.638 17.6849 126.364 18.0081 126.997 18.4459C127.636 18.8838 128.14 19.4467 128.508 20.1348C128.876 20.8159 129.061 21.6325 129.061 22.5847V33.3849H124.849V31.1644H124.724C124.467 31.6648 124.123 32.1061 123.692 32.4884C123.261 32.8637 122.743 33.159 122.138 33.3745C121.534 33.583 120.835 33.6872 120.043 33.6872ZM121.315 30.6223C121.968 30.6223 122.545 30.4937 123.045 30.2366C123.546 29.9725 123.939 29.618 124.223 29.1732C124.508 28.7284 124.651 28.2246 124.651 27.6616V25.9623C124.512 26.0527 124.321 26.1361 124.078 26.2125C123.841 26.282 123.574 26.3481 123.275 26.4106C122.976 26.4662 122.677 26.5183 122.378 26.567C122.079 26.6087 121.808 26.6469 121.565 26.6817C121.044 26.7581 120.589 26.8797 120.199 27.0465C119.81 27.2133 119.508 27.4392 119.292 27.7242C119.077 28.0022 118.969 28.3497 118.969 28.7667C118.969 29.3713 119.188 29.8335 119.626 30.1532C120.071 30.4659 120.634 30.6223 121.315 30.6223Z" fill="white"/>
<path d="M105.229 33.6977C103.582 33.6977 102.164 33.3641 100.976 32.6969C99.7943 32.0227 98.8838 31.0706 98.2444 29.8404C97.605 28.6033 97.2853 27.1404 97.2853 25.4515C97.2853 23.8044 97.605 22.3588 98.2444 21.1147C98.8838 19.8707 99.7839 18.9012 100.945 18.2062C102.112 17.5112 103.481 17.1637 105.052 17.1637C106.108 17.1637 107.092 17.3339 108.002 17.6745C108.92 18.0081 109.719 18.512 110.4 19.1861C111.088 19.8603 111.623 20.7082 112.005 21.7298C112.388 22.7445 112.579 23.9329 112.579 25.2951V26.5149H99.0576V23.7627H108.398C108.398 23.1233 108.259 22.5569 107.981 22.0634C107.703 21.57 107.318 21.1842 106.824 20.9062C106.338 20.6213 105.771 20.4788 105.125 20.4788C104.451 20.4788 103.853 20.6352 103.332 20.9479C102.818 21.2537 102.414 21.6673 102.123 22.1885C101.831 22.7028 101.681 23.2762 101.674 23.9086V26.5253C101.674 27.3176 101.82 28.0022 102.112 28.579C102.411 29.1559 102.831 29.6007 103.374 29.9134C103.916 30.2262 104.558 30.3825 105.302 30.3825C105.796 30.3825 106.247 30.313 106.657 30.174C107.067 30.035 107.418 29.8265 107.71 29.5485C108.002 29.2705 108.225 28.93 108.378 28.5269L112.485 28.7979C112.276 29.7848 111.849 30.6466 111.203 31.3833C110.563 32.1131 109.736 32.683 108.722 33.093C107.714 33.4961 106.55 33.6977 105.229 33.6977Z" fill="white"/>
<path d="M84.0534 24.1276V33.385H79.6124V12.0346H83.9283V20.1974H84.116C84.4774 19.2522 85.0612 18.512 85.8674 17.9768C86.6736 17.4347 87.6848 17.1637 88.901 17.1637C90.013 17.1637 90.9826 17.4069 91.8096 17.8934C92.6436 18.373 93.29 19.0645 93.7487 19.968C94.2143 20.8646 94.4437 21.9383 94.4367 23.1893V33.385H89.9957V23.9816C90.0026 22.9947 89.7524 22.2268 89.2451 21.6777C88.7447 21.1287 88.0427 20.8541 87.1392 20.8541C86.5346 20.8541 85.9994 20.9827 85.5338 21.2399C85.0751 21.497 84.7137 21.8723 84.4496 22.3658C84.1924 22.8523 84.0604 23.4395 84.0534 24.1276Z" fill="white"/>
<path d="M76.4589 19.5093H71.8927C71.8093 18.9186 71.639 18.3938 71.3819 17.9351C71.1248 17.4695 70.7946 17.0733 70.3915 16.7467C69.9884 16.42 69.5228 16.1698 68.9946 15.9961C68.4733 15.8223 67.9069 15.7355 67.2953 15.7355C66.1903 15.7355 65.2277 16.01 64.4076 16.559C63.5875 17.1011 62.9516 17.8934 62.4998 18.9359C62.0481 19.9715 61.8222 21.2294 61.8222 22.7098C61.8222 24.2318 62.0481 25.5106 62.4998 26.5462C62.9585 27.5817 63.5979 28.3636 64.418 28.8918C65.2381 29.42 66.1868 29.6841 67.264 29.6841C67.8687 29.6841 68.4282 29.6042 68.9425 29.4443C69.4637 29.2845 69.9259 29.0516 70.329 28.7458C70.7321 28.4331 71.0657 28.0543 71.3298 27.6095C71.6008 27.1647 71.7885 26.6574 71.8927 26.0875L76.4589 26.1083C76.3407 27.0883 76.0453 28.0335 75.5727 28.9439C75.1071 29.8474 74.4781 30.6571 73.6858 31.3729C72.9005 32.0818 71.9622 32.6448 70.8711 33.0618C69.7869 33.4718 68.5602 33.6769 67.1911 33.6769C65.2868 33.6769 63.584 33.246 62.0828 32.3842C60.5886 31.5224 59.4071 30.2748 58.5383 28.6416C57.6765 27.0083 57.2456 25.0311 57.2456 22.7098C57.2456 20.3815 57.6835 18.4008 58.5592 16.7675C59.4349 15.1343 60.6233 13.8903 62.1245 13.0354C63.6257 12.1736 65.3146 11.7427 67.1911 11.7427C68.4282 11.7427 69.5749 11.9165 70.6313 12.264C71.6946 12.6115 72.6364 13.1188 73.4565 13.786C74.2766 14.4462 74.9438 15.2559 75.4581 16.215C75.9793 17.1741 76.3129 18.2722 76.4589 19.5093Z" fill="white"/>
</svg>
